<svg xmlns="http://www.w3.org/2000/svg" xmlns:xlink="http://www.w3.org/1999/xlink" width="500" zoomAndPan="magnify" viewBox="0 0 375 374.999991" height="500" preserveAspectRatio="xMidYMid meet" version="1.0"><defs><clipPath id="734bee6817"><path d="M 38.011719 37.582031 L 374.984375 37.582031 L 374.984375 341.65625 L 38.011719 341.65625 Z M 38.011719 37.582031 " clip-rule="nonzero"/></clipPath><clipPath id="fc284b6724"><path d="M 0 120.378906 L 264.953125 120.378906 L 264.953125 341.65625 L 0 341.65625 Z M 0 120.378906 " clip-rule="nonzero"/></clipPath></defs><g clip-path="url(#734bee6817)"><path fill="#38b6ff" d="M 291.023438 244.808594 L 291 244.8125 C 324.910156 225.925781 347.851562 189.722656 347.851562 148.152344 C 347.851562 87.085938 298.347656 37.578125 237.28125 37.578125 L 38.207031 37.578125 L 64.679688 68.117188 C 78.308594 83.835938 98.085938 92.867188 118.886719 92.867188 L 237.28125 92.867188 C 267.8125 92.867188 292.566406 117.617188 292.566406 148.152344 C 292.566406 178.6875 267.8125 203.4375 237.28125 203.4375 L 181.992188 203.441406 L 229.921875 258.726562 L 280.359375 316.90625 C 293.988281 332.625 313.765625 341.65625 334.566406 341.65625 L 374.984375 341.65625 L 291.023438 244.808594 " fill-opacity="1" fill-rule="nonzero"/></g><g clip-path="url(#fc284b6724)"><path fill="#38b6ff" d="M 231.199219 175.796875 L 204.722656 145.257812 C 191.097656 129.539062 171.316406 120.507812 150.515625 120.507812 L 0 120.507812 L 170.261719 316.90625 C 183.890625 332.625 203.667969 341.65625 224.46875 341.65625 L 264.886719 341.65625 L 121.097656 175.796875 L 231.199219 175.796875 " fill-opacity="1" fill-rule="nonzero"/></g></svg>